<svg xmlns="http://www.w3.org/2000/svg" width="100" height="100" viewBox="0 0 100 100"><path d="M57.5 58.438h-15c-.52 0-.938.42-.938.938s.42.938.938.938h8.438v2.812c0 2.067 1.68 3.75 3.75 3.75s3.75-1.683 3.75-3.75v-3.75c0-.52-.42-.938-.938-.938zm-.938 4.687c0 1.035-.842 1.875-1.875 1.875s-1.875-.84-1.875-1.875v-2.812h3.75v2.812zM42.5 54.688c.24 0 .48-.092.663-.274.366-.366.366-.96 0-1.326l-1.212-1.212 1.213-1.212c.366-.366.366-.96 0-1.326s-.96-.366-1.326 0l-1.212 1.212-1.212-1.212c-.366-.366-.96-.366-1.326 0s-.366.96 0 1.326l1.212 1.212-1.213 1.212c-.366.366-.366.96 0 1.326.184.183.423.274.663.274s.48-.092.663-.274l1.212-1.212 1.212 1.212c.184.182.423.274.663.274zM56.837 49.337c-.366.366-.366.96 0 1.326l1.212 1.212-1.213 1.212c-.366.366-.366.96 0 1.326.184.183.423.274.663.274s.48-.092.663-.274l1.212-1.212 1.212 1.213c.184.183.423.274.663.274s.48-.092.663-.274c.366-.366.366-.96 0-1.326L60.7 51.875l1.213-1.212c.366-.366.366-.96 0-1.326s-.96-.366-1.326 0l-1.212 1.212-1.212-1.213c-.366-.366-.96-.366-1.326 0zM50.42 21.036l-.42-.208-.42.208c-7.426 3.714-21.143 18.93-21.143 30.84 0 10.41 7.42 19.33 17.643 21.208 1.28.234 2.598.354 3.92.354s2.64-.12 3.918-.354c10.225-1.878 17.645-10.798 17.645-21.21 0-11.908-13.717-27.124-21.144-30.838zm3.16 50.202c-2.333.432-4.825.432-7.162 0-9.332-1.714-16.105-9.856-16.105-19.363 0-11.01 12.54-25.07 19.688-28.943 7.147 3.873 19.69 17.933 19.69 28.943-.002 9.507-6.776 17.65-16.11 19.363zM62.57 42.55c.168.314.49.492.824.492.15 0 .304-.037.446-.113.454-.247.624-.816.377-1.272-.59-1.09-1.237-2.183-1.926-3.245-.28-.438-.863-.555-1.296-.278-.436.282-.558.862-.278 1.296.664 1.023 1.287 2.072 1.854 3.12zM51.818 26.447c-.392-.328-.983-.282-1.322.113-.333.396-.282.987.113 1.322 2.428 2.043 4.874 4.587 7.076 7.35.186.232.458.354.732.354.205 0 .412-.066.584-.205.405-.32.473-.91.148-1.315-2.276-2.86-4.812-5.494-7.332-7.618z"/></svg>