<svg xmlns="http://www.w3.org/2000/svg" xmlns:xlink="http://www.w3.org/1999/xlink" version="1.1" id="Layer_1" x="0px" y="0px" width="100px" height="100px" viewBox="0 0 100 100" enable-background="new 0 0 100 100" xml:space="preserve">
<path fill="#000000" d="M57.5,58.438h-15c-0.519,0-0.938,0.419-0.938,0.938s0.419,0.938,0.938,0.938h8.438v2.812  c0,2.067,1.681,3.75,3.75,3.75s3.75-1.683,3.75-3.75v-3.75C58.438,58.857,58.019,58.438,57.5,58.438z M56.562,63.125  c0,1.035-0.842,1.875-1.875,1.875s-1.875-0.84-1.875-1.875v-2.812h3.75V63.125z"/>
<path fill="#000000" d="M42.5,54.688c0.24,0,0.479-0.092,0.663-0.274c0.366-0.366,0.366-0.96,0-1.326l-1.212-1.212l1.212-1.212  c0.366-0.366,0.366-0.96,0-1.326s-0.96-0.366-1.326,0l-1.212,1.212l-1.212-1.212c-0.366-0.366-0.96-0.366-1.326,0  s-0.366,0.96,0,1.326l1.212,1.212l-1.212,1.212c-0.366,0.366-0.366,0.96,0,1.326c0.184,0.183,0.423,0.274,0.663,0.274  s0.479-0.092,0.663-0.274l1.212-1.212l1.212,1.212C42.021,54.596,42.26,54.688,42.5,54.688z"/>
<path fill="#000000" d="M56.837,49.337c-0.366,0.366-0.366,0.96,0,1.326l1.212,1.212l-1.212,1.212c-0.366,0.366-0.366,0.96,0,1.326  c0.184,0.183,0.423,0.274,0.663,0.274s0.479-0.092,0.663-0.274l1.212-1.212l1.212,1.212c0.184,0.183,0.423,0.274,0.663,0.274  s0.479-0.092,0.663-0.274c0.366-0.366,0.366-0.96,0-1.326l-1.212-1.212l1.212-1.212c0.366-0.366,0.366-0.96,0-1.326  s-0.96-0.366-1.326,0l-1.212,1.212l-1.212-1.212C57.797,48.971,57.203,48.971,56.837,49.337z"/>
<path fill="#000000" d="M50.419,21.036L50,20.828l-0.419,0.208c-7.427,3.714-21.144,18.93-21.144,30.839  c0,10.411,7.42,19.331,17.643,21.209c1.279,0.234,2.598,0.354,3.92,0.354s2.641-0.119,3.918-0.354  c10.225-1.878,17.645-10.798,17.645-21.209C71.562,39.966,57.846,24.75,50.419,21.036z M53.58,71.238  c-2.333,0.432-4.825,0.432-7.162,0c-9.332-1.714-16.105-9.856-16.105-19.363c0-11.01,12.541-25.071,19.688-28.943  c7.146,3.873,19.688,17.933,19.688,28.943C69.688,61.382,62.914,69.524,53.58,71.238z"/>
<path fill="#000000" d="M62.57,42.551c0.168,0.313,0.49,0.491,0.824,0.491c0.151,0,0.304-0.037,0.446-0.113  c0.454-0.246,0.624-0.815,0.377-1.271c-0.589-1.089-1.237-2.183-1.926-3.245c-0.282-0.438-0.864-0.555-1.297-0.278  c-0.436,0.282-0.558,0.862-0.278,1.296C61.38,40.453,62.003,41.502,62.57,42.551z"/>
<path fill="#000000" d="M51.818,26.447c-0.392-0.328-0.983-0.282-1.322,0.113c-0.333,0.396-0.282,0.987,0.113,1.322  c2.429,2.043,4.875,4.587,7.077,7.35c0.186,0.232,0.458,0.354,0.732,0.354c0.205,0,0.412-0.066,0.584-0.205  c0.405-0.322,0.473-0.912,0.148-1.316C56.874,31.204,54.338,28.571,51.818,26.447z"/>
</svg>